<?xml version="1.0" standalone="no"?>
<!DOCTYPE svg PUBLIC "-//W3C//DTD SVG 20010904//EN"
 "http://www.w3.org/TR/2001/REC-SVG-20010904/DTD/svg10.dtd">
<svg version="1.0" xmlns="http://www.w3.org/2000/svg"
 width="505.000000pt" height="505.000000pt" viewBox="0 0 505.000000 505.000000"
 preserveAspectRatio="xMidYMid meet">
<metadata>
Created by potrace 1.14, written by Peter Selinger 2001-2017
</metadata>
<g transform="translate(0.000000,505.000000) scale(0.100000,-0.100000)"
fill="#000000" stroke="none">
<path d="M623 5035 c-66 -18 -145 -58 -196 -99 -53 -42 -122 -141 -150 -213
l-22 -58 -3 -1850 c-1 -1262 1 -1866 8 -1901 14 -64 60 -163 102 -215 44 -55
142 -124 215 -152 57 -21 68 -22 608 -24 l550 -2 -60 22 c-203 77 -420 195
-606 327 l-100 72 22 36 c11 20 98 160 191 309 l170 273 42 -34 c109 -88 335
-223 485 -291 364 -163 760 -215 1002 -131 187 65 309 220 309 393 0 84 -24
137 -95 207 -127 124 -295 197 -925 400 -455 146 -763 368 -890 641 -62 131
-75 198 -74 370 0 83 6 177 13 210 103 490 491 807 1106 901 153 23 461 23
619 0 222 -32 437 -98 641 -197 126 -60 275 -148 281 -164 3 -7 -59 -141 -138
-298 l-143 -286 -55 35 c-200 129 -472 224 -722 255 -132 16 -411 7 -508 -16
-166 -38 -277 -119 -320 -231 -32 -83 -32 -208 -1 -280 48 -110 128 -151 491
-250 449 -123 735 -223 920 -321 276 -146 412 -273 501 -468 70 -155 101 -366
82 -557 -28 -272 -112 -460 -289 -647 -100 -106 -171 -161 -296 -234 l-82 -47
520 0 c563 0 578 1 686 56 29 15 70 41 91 58 53 42 122 141 150 213 l22 58 3
1850 c1 1262 -1 1866 -8 1901 -14 64 -60 163 -102 215 -44 55 -142 124 -215
152 l-58 22 -1860 2 c-1578 2 -1868 0 -1912 -12z"/>
<path d="M2508 373 c7 -3 16 -2 19 1 4 3 -2 6 -13 5 -11 0 -14 -3 -6 -6z"/>
<path d="M2568 373 c7 -3 16 -2 19 1 4 3 -2 6 -13 5 -11 0 -14 -3 -6 -6z"/>
<path d="M2613 373 c9 -2 23 -2 30 0 6 3 -1 5 -18 5 -16 0 -22 -2 -12 -5z"/>
</g>
</svg>
