<svg viewBox="0 0 408 426" fill="none" xmlns="http://www.w3.org/2000/svg">
<g clip-path="url(#clip0_203_9)">
<rect width="408" height="387" rx="49" fill="#FFB562"/>
<path d="M214.186 425.876C155.423 425.876 102.536 407.595 55.5258 371.031L92.7423 311.289C134.529 343.282 175.663 359.278 216.144 359.278C233.12 359.278 246.505 355.361 256.299 347.526C266.746 339.038 271.969 328.591 271.969 316.186C271.969 297.904 247.811 281.581 199.495 267.216C198.189 266.564 196.557 265.911 194.598 265.258C193.292 264.605 192.313 264.278 191.66 264.278C115.921 244.038 78.0515 209.759 78.0515 161.443C78.0515 127.491 90.7835 100.395 116.247 80.1546C142.364 59.9141 176.643 49.7938 219.082 49.7938C260.869 49.7938 300.698 62.1993 338.567 87.0103L310.165 143.814C280.784 124.227 248.464 114.433 213.206 114.433C172.072 114.433 151.505 127.491 151.505 153.608C151.505 164.708 155.423 172.869 163.258 178.093C171.746 182.663 185.457 187.234 204.392 191.804C233.12 199.639 257.278 207.474 276.866 215.309C289.924 221.186 301.351 227.388 311.144 233.918C335.955 250.893 348.361 276.684 348.361 311.289C348.361 345.241 335.629 372.99 310.165 394.536C285.354 415.43 253.361 425.876 214.186 425.876Z" fill="white"/>
</g>
<defs>
<clipPath id="clip0_203_9">
<rect width="408" height="426" fill="white"/>
</clipPath>
</defs>
</svg>
