<svg viewBox="0 0 837 174" fill="none" xmlns="http://www.w3.org/2000/svg">
<g clip-path="url(#clip0_127_2)">
<rect y="23" width="132" height="124" rx="10" fill="#FFB562"/>
<g filter="url(#filter0_d_127_2)">
<path d="M72.2165 161.856C53.6598 161.856 36.9588 156.082 22.1134 144.536L33.866 125.67C47.0619 135.773 60.0515 140.825 72.8351 140.825C78.1959 140.825 82.4227 139.588 85.5155 137.113C88.8144 134.433 90.4639 131.134 90.4639 127.216C90.4639 121.443 82.8351 116.289 67.5773 111.753C67.165 111.546 66.6495 111.34 66.0309 111.134C65.6186 110.928 65.3093 110.825 65.1031 110.825C41.1856 104.433 29.2268 93.6082 29.2268 78.3505C29.2268 67.6289 33.2474 59.0722 41.2887 52.6804C49.5361 46.2887 60.3608 43.0928 73.7629 43.0928C86.9588 43.0928 99.5361 47.0103 111.495 54.8454L102.526 72.7835C93.2474 66.5979 83.0412 63.5052 71.9072 63.5052C58.9175 63.5052 52.4227 67.6289 52.4227 75.8763C52.4227 79.3814 53.6598 81.9588 56.134 83.6082C58.8144 85.0515 63.1443 86.4948 69.1237 87.9381C78.1959 90.4124 85.8247 92.8866 92.0103 95.3608C96.134 97.2165 99.7423 99.1753 102.835 101.237C110.67 106.598 114.588 114.742 114.588 125.67C114.588 136.392 110.567 145.155 102.526 151.959C94.6907 158.557 84.5876 161.856 72.2165 161.856ZM166.323 160H142.199V-0.515475H166.323V65.6701C169.828 58.6598 175.086 53.1959 182.096 49.2783C189.106 45.1546 196.632 43.0928 204.673 43.0928C218.075 43.0928 228.694 47.1134 236.529 55.1546C244.364 63.1959 248.282 74.6392 248.282 89.4845V160H223.849V96.9072C223.849 75.6701 215.086 65.0515 197.56 65.0515C188.694 65.0515 181.271 67.9381 175.292 73.7113C169.313 79.2783 166.323 87.2165 166.323 97.5258V160ZM334.832 140.206C345.347 140.206 354.007 136.701 360.811 129.691C367.822 122.68 371.327 113.608 371.327 102.474C371.327 91.3402 367.822 82.268 360.811 75.2577C354.007 68.2474 345.347 64.7423 334.832 64.7423C324.316 64.7423 315.657 68.2474 308.852 75.2577C302.048 82.268 298.646 91.3402 298.646 102.474C298.646 113.608 302.048 122.577 308.852 129.381C315.657 136.598 324.316 140.206 334.832 140.206ZM334.832 161.856C317.512 161.856 303.079 156.186 291.533 144.845C279.987 133.299 274.213 119.175 274.213 102.474C274.213 85.7732 279.987 71.7526 291.533 60.4124C303.079 48.866 317.512 43.0928 334.832 43.0928C352.151 43.0928 366.584 48.866 378.131 60.4124C389.677 71.7526 395.45 85.7732 395.45 102.474C395.45 118.557 389.677 132.577 378.131 144.536C366.584 156.082 352.151 161.856 334.832 161.856ZM446.987 110.515V160H422.863V44.9485H446.987V67.8351C450.904 60.6186 456.162 54.7423 462.76 50.2062C469.564 45.6701 476.678 43.299 484.1 43.0928L484.41 67.5258H483.173C471.42 67.5258 462.451 71.3402 456.265 78.9691C450.08 86.5979 446.987 97.1134 446.987 110.515ZM538.394 64.433V122.887C538.394 128.454 539.837 132.887 542.724 136.186C545.816 139.278 549.94 140.825 555.095 140.825C559.837 140.825 564.786 138.247 569.94 133.093L579.837 150.412C571.177 158.041 561.796 161.856 551.693 161.856C541.177 161.856 532.311 158.247 525.095 151.031C517.878 143.608 514.27 134.021 514.27 122.268V64.433H499.734V44.9485H514.27V8.76288H538.394V44.9485H568.703V64.433H538.394ZM706.241 112.99H615.931C616.55 121.237 620.364 127.938 627.375 133.093C634.385 138.247 642.529 140.825 651.808 140.825C666.447 140.825 677.375 136.289 684.591 127.216L698.509 142.371C686.138 155.361 669.952 161.856 649.952 161.856C633.457 161.856 619.643 156.392 608.509 145.464C597.375 134.536 591.808 120.103 591.808 102.165C591.808 84.6392 597.478 70.4124 608.818 59.4845C620.158 48.5567 633.87 43.0928 649.952 43.0928C666.035 43.0928 679.437 47.9381 690.158 57.6289C700.88 67.3196 706.241 80.2062 706.241 96.2887V112.99ZM682.117 93.8144C682.117 84.5361 679.127 77.2165 673.148 71.8557C667.375 66.4948 659.849 63.8144 650.571 63.8144C641.292 63.8144 633.148 66.5979 626.138 72.1649C619.334 77.732 615.931 84.9485 615.931 93.8144H682.117ZM751.365 44.9485L776.107 82.6804L801.777 44.9485H830.54L790.024 101.237L832.086 160H802.396L774.87 121.649L747.963 160H719.509L760.643 101.237L721.674 44.9485H751.365Z" fill="black"/>
</g>
</g>
<defs>
<filter id="filter0_d_127_2" x="18.1133" y="-0.515503" width="817.973" height="170.371" filterUnits="userSpaceOnUse" color-interpolation-filters="sRGB">
<feFlood flood-opacity="0" result="BackgroundImageFix"/>
<feColorMatrix in="SourceAlpha" type="matrix" values="0 0 0 0 0 0 0 0 0 0 0 0 0 0 0 0 0 0 127 0" result="hardAlpha"/>
<feOffset dy="4"/>
<feGaussianBlur stdDeviation="2"/>
<feComposite in2="hardAlpha" operator="out"/>
<feColorMatrix type="matrix" values="0 0 0 0 0 0 0 0 0 0 0 0 0 0 0 0 0 0 0.25 0"/>
<feBlend mode="normal" in2="BackgroundImageFix" result="effect1_dropShadow_127_2"/>
<feBlend mode="normal" in="SourceGraphic" in2="effect1_dropShadow_127_2" result="shape"/>
</filter>
</defs>
</svg>
